<svg width="20" height="20" viewBox="0 0 20 20" fill="none" xmlns="http://www.w3.org/2000/svg">
<path d="M12.7423 3.17188C12.6268 3.12685 12.501 3.11542 12.3793 3.13893C12.2577 3.16243 12.1452 3.2199 12.0548 3.30469L5.80479 9.55469C5.68742 9.67318 5.62158 9.83322 5.62158 10C5.62158 10.1668 5.68742 10.3268 5.80479 10.4453L12.0548 16.6953C12.1748 16.81 12.3341 16.8743 12.5001 16.875C12.583 16.8746 12.6652 16.8587 12.7423 16.8281C12.856 16.7803 12.9531 16.6999 13.0212 16.597C13.0893 16.4941 13.1255 16.3734 13.1251 16.25V3.75C13.1255 3.62661 13.0893 3.50587 13.0212 3.40298C12.9531 3.3001 12.856 3.21969 12.7423 3.17188Z" fill="#A8A8A8"/>
</svg>
