<svg width="9" height="14" viewBox="0 0 9 14" fill="none" xmlns="http://www.w3.org/2000/svg">
<path d="M8.19532 6.55469L1.94532 0.304688C1.85495 0.219901 1.74242 0.162431 1.62076 0.138927C1.49909 0.115424 1.37326 0.126847 1.25782 0.171875C1.14406 0.219689 1.04701 0.300103 0.978888 0.402985C0.910764 0.505866 0.874617 0.62661 0.875003 0.75V13.25C0.874617 13.3734 0.910764 13.4941 0.978888 13.597C1.04701 13.6999 1.14406 13.7803 1.25782 13.8281C1.33491 13.8587 1.41705 13.8746 1.5 13.875C1.66597 13.8743 1.82534 13.81 1.94532 13.6953L8.19532 7.44531C8.31268 7.32682 8.37852 7.16678 8.37852 7C8.37852 6.83322 8.31268 6.67318 8.19532 6.55469V6.55469Z" fill="#32BCA3"/>
</svg>
