<svg width="20" height="20" viewBox="0 0 20 20" fill="none" xmlns="http://www.w3.org/2000/svg">
<path d="M10 17.5C14.1421 17.5 17.5 14.1421 17.5 10C17.5 5.85786 14.1421 2.5 10 2.5C5.85786 2.5 2.5 5.85786 2.5 10C2.5 14.1421 5.85786 17.5 10 17.5Z" stroke="#252525" stroke-width="1.5" stroke-linecap="round" stroke-linejoin="round"/>
<path d="M3.875 14.3281L4.78906 13.7734C4.87971 13.7175 4.95457 13.6394 5.00653 13.5464C5.05849 13.4534 5.08582 13.3487 5.08594 13.2422L5.10156 10.4219C5.10281 10.305 5.1381 10.1909 5.20312 10.0937L6.75 7.66406C6.79642 7.59228 6.8569 7.53064 6.92779 7.48287C6.99869 7.43511 7.07853 7.4022 7.16249 7.38614C7.24645 7.37007 7.3328 7.37119 7.41632 7.38942C7.49984 7.40764 7.5788 7.4426 7.64844 7.49219L9.17969 8.60156C9.3118 8.69367 9.47261 8.73526 9.63281 8.71875L12.0938 8.38281C12.243 8.36226 12.3794 8.28711 12.4766 8.17188L14.2109 6.17188C14.3138 6.04996 14.3668 5.8937 14.3594 5.73438L14.2734 3.83594" stroke="#252525" stroke-width="1.5" stroke-linecap="round" stroke-linejoin="round"/>
<path d="M14.6172 15.9141L13.7735 15.0704C13.6954 14.9924 13.5985 14.9359 13.4922 14.9063L11.8125 14.4688C11.665 14.4284 11.5374 14.3354 11.4539 14.2072C11.3704 14.0791 11.3368 13.9248 11.3594 13.7735L11.5391 12.5079C11.5569 12.4014 11.6014 12.3012 11.6683 12.2165C11.7352 12.1318 11.8225 12.0655 11.9219 12.0235L14.2969 11.0313C14.4072 10.9853 14.5284 10.9719 14.6461 10.9927C14.7638 11.0134 14.8731 11.0675 14.961 11.1485L16.9063 12.9297" stroke="#252525" stroke-width="1.5" stroke-linecap="round" stroke-linejoin="round"/>
</svg>
