<svg width="192" height="69" viewBox="0 0 192 69" fill="none" xmlns="http://www.w3.org/2000/svg">
<path d="M121.601 36.7151C134.847 74.364 110.041 73.0352 94.3423 60.9675C73.9254 75.6015 21.5333 67.8024 57.3087 36.2199C41.2428 -1.45077 73.3933 -1.77208 94.7585 6.92591C132.715 -14.9687 147.067 25.5333 121.601 36.7151Z" fill="#32BCA3"/>
<path d="M8.84659 33.2961V44.3416H1.78977V18.1597H8.59091V28.4381H8.79545C9.23864 27.1853 9.97585 26.2095 11.0071 25.5106C12.0384 24.8032 13.2784 24.4495 14.7273 24.4495C16.1165 24.4495 17.3224 24.7648 18.3452 25.3955C19.3764 26.0262 20.1733 26.8955 20.7358 28.0035C21.3068 29.1114 21.5881 30.3813 21.5795 31.8131V44.3416H14.5227V33.2961C14.5313 32.3245 14.2884 31.5617 13.794 31.0077C13.3082 30.4538 12.6136 30.1768 11.7102 30.1768C11.1392 30.1768 10.6364 30.3046 10.2017 30.5603C9.77557 30.8075 9.44318 31.1654 9.20455 31.6342C8.97443 32.0944 8.85511 32.6484 8.84659 33.2961ZM34.4723 44.6995C32.3757 44.6995 30.5689 44.2989 29.0518 43.4978C27.5433 42.6881 26.38 41.5291 25.5618 40.0205C24.7521 38.5035 24.3473 36.6881 24.3473 34.5745C24.3473 32.5461 24.7564 30.7734 25.5746 29.2563C26.3928 27.7393 27.5476 26.5589 29.0391 25.7151C30.5305 24.8714 32.2905 24.4495 34.3189 24.4495C35.8018 24.4495 37.1442 24.6796 38.3459 25.1398C39.5476 25.6001 40.5746 26.2691 41.4268 27.147C42.2791 28.0163 42.9354 29.0731 43.3956 30.3174C43.8558 31.5617 44.0859 32.9637 44.0859 34.5234V36.1597H26.5462V32.2734H37.5916C37.5831 31.7109 37.4382 31.2166 37.157 30.7904C36.8842 30.3558 36.5135 30.0191 36.0447 29.7805C35.5845 29.5333 35.0604 29.4097 34.4723 29.4097C33.9013 29.4097 33.3771 29.5333 32.8999 29.7805C32.4226 30.0191 32.0391 30.3515 31.7493 30.7776C31.468 31.2038 31.3189 31.7023 31.3018 32.2734V36.4666C31.3018 37.0972 31.4339 37.6597 31.6982 38.1541C31.9624 38.6484 32.3416 39.0362 32.8359 39.3174C33.3303 39.5987 33.9268 39.7393 34.6257 39.7393C35.1115 39.7393 35.5547 39.6711 35.9553 39.5347C36.3643 39.3984 36.7138 39.2023 37.0036 38.9467C37.2933 38.6825 37.5064 38.3671 37.6428 38.0006H44.0859C43.8643 39.3643 43.3402 40.5489 42.5135 41.5546C41.6868 42.5518 40.5916 43.3273 39.228 43.8813C37.8729 44.4268 36.2876 44.6995 34.4723 44.6995ZM54.0224 18.1597V44.3416H46.9656V18.1597H54.0224ZM57.6179 51.7052V24.7052H64.6236V28.1313H64.777C65.0327 27.4666 65.4077 26.8572 65.902 26.3032C66.3963 25.7407 67.0099 25.2933 67.7429 24.9609C68.4759 24.62 69.3281 24.4495 70.2997 24.4495C71.5952 24.4495 72.8267 24.7947 73.9943 25.485C75.1705 26.1754 76.125 27.262 76.858 28.745C77.5994 30.2279 77.9702 32.1541 77.9702 34.5234C77.9702 36.7904 77.6165 38.6697 76.9091 40.1612C76.2102 41.6526 75.2727 42.7648 74.0966 43.4978C72.929 44.2308 71.6463 44.5972 70.2486 44.5972C69.3281 44.5972 68.5057 44.4481 67.7812 44.1498C67.0653 43.843 66.4517 43.4296 65.9403 42.9097C65.4375 42.3813 65.0497 41.7847 64.777 41.12H64.6747V51.7052H57.6179ZM64.5213 34.5234C64.5213 35.4779 64.6449 36.3046 64.892 37.0035C65.1477 37.6938 65.5057 38.2308 65.9659 38.6143C66.4347 38.9893 66.9929 39.1768 67.6406 39.1768C68.2884 39.1768 68.8381 38.9935 69.2898 38.6271C69.75 38.2521 70.0994 37.7194 70.3381 37.0291C70.5852 36.3302 70.7088 35.495 70.7088 34.5234C70.7088 33.5518 70.5852 32.7208 70.3381 32.0305C70.0994 31.3316 69.75 30.7989 69.2898 30.4325C68.8381 30.0575 68.2884 29.87 67.6406 29.87C66.9929 29.87 66.4347 30.0575 65.9659 30.4325C65.5057 30.7989 65.1477 31.3316 64.892 32.0305C64.6449 32.7208 64.5213 33.5518 64.5213 34.5234ZM112.439 27.9779H105.229C105.178 27.3813 105.042 26.8401 104.82 26.3543C104.607 25.8685 104.309 25.4509 103.925 25.1015C103.55 24.7435 103.094 24.4708 102.557 24.2833C102.02 24.0873 101.411 23.9893 100.729 23.9893C99.5359 23.9893 98.5259 24.2791 97.6992 24.8586C96.881 25.4381 96.2589 26.2691 95.8327 27.3515C95.4151 28.4339 95.2063 29.7336 95.2063 31.2506C95.2063 32.8529 95.4194 34.1952 95.8455 35.2776C96.2802 36.3515 96.9066 37.1612 97.7248 37.7066C98.543 38.2435 99.5273 38.512 100.678 38.512C101.334 38.512 101.922 38.431 102.442 38.2691C102.962 38.0987 103.414 37.8558 103.797 37.5404C104.181 37.2251 104.492 36.8458 104.73 36.4026C104.978 35.9509 105.144 35.4438 105.229 34.8813L112.439 34.9325C112.354 36.0404 112.043 37.1697 111.506 38.3202C110.969 39.4623 110.206 40.5191 109.218 41.4907C108.238 42.4538 107.023 43.2293 105.574 43.8174C104.125 44.4055 102.442 44.6995 100.525 44.6995C98.1211 44.6995 95.9648 44.1839 94.0558 43.1526C92.1552 42.1214 90.6509 40.6043 89.543 38.6015C88.4435 36.5987 87.8938 34.1484 87.8938 31.2506C87.8938 28.3359 88.4563 25.8813 89.5813 23.887C90.7063 21.8842 92.2234 20.3714 94.1325 19.3487C96.0415 18.3174 98.1722 17.8018 100.525 17.8018C102.178 17.8018 103.699 18.0276 105.088 18.4793C106.478 18.931 107.696 19.5916 108.745 20.4609C109.793 21.3217 110.637 22.3827 111.276 23.6441C111.915 24.9055 112.303 26.3501 112.439 27.9779ZM141.028 31.2506C141.028 34.1654 140.461 36.6242 139.327 38.6271C138.194 40.6214 136.664 42.1342 134.738 43.1654C132.812 44.1881 130.664 44.6995 128.295 44.6995C125.908 44.6995 123.752 44.1839 121.826 43.1526C119.908 42.1129 118.383 40.5958 117.249 38.6015C116.124 36.5987 115.562 34.1484 115.562 31.2506C115.562 28.3359 116.124 25.8813 117.249 23.887C118.383 21.8842 119.908 20.3714 121.826 19.3487C123.752 18.3174 125.908 17.8018 128.295 17.8018C130.664 17.8018 132.812 18.3174 134.738 19.3487C136.664 20.3714 138.194 21.8842 139.327 23.887C140.461 25.8813 141.028 28.3359 141.028 31.2506ZM133.715 31.2506C133.715 29.6825 133.506 28.3614 133.089 27.2876C132.68 26.2052 132.07 25.387 131.261 24.833C130.46 24.2705 129.471 23.9893 128.295 23.9893C127.119 23.9893 126.126 24.2705 125.316 24.833C124.515 25.387 123.906 26.2052 123.488 27.2876C123.079 28.3614 122.874 29.6825 122.874 31.2506C122.874 32.8188 123.079 34.1441 123.488 35.2265C123.906 36.3004 124.515 37.1185 125.316 37.681C126.126 38.235 127.119 38.512 128.295 38.512C129.471 38.512 130.46 38.235 131.261 37.681C132.07 37.1185 132.68 36.3004 133.089 35.2265C133.506 34.1441 133.715 32.8188 133.715 31.2506ZM154.39 44.3416H144.316V18.1597H154.288C156.981 18.1597 159.308 18.6839 161.268 19.7322C163.237 20.7719 164.754 22.2719 165.819 24.2322C166.893 26.1839 167.43 28.5234 167.43 31.2506C167.43 33.9779 166.897 36.3217 165.832 38.2819C164.767 40.2336 163.258 41.7336 161.306 42.7819C159.355 43.8217 157.049 44.3416 154.39 44.3416ZM151.424 38.3075H154.135C155.43 38.3075 156.534 38.0987 157.446 37.681C158.366 37.2634 159.065 36.5433 159.542 35.5205C160.028 34.4978 160.271 33.0745 160.271 31.2506C160.271 29.4268 160.024 28.0035 159.529 26.9808C159.044 25.958 158.328 25.2379 157.382 24.8202C156.444 24.4026 155.294 24.1938 153.93 24.1938H151.424V38.3075ZM170.719 44.3416V18.1597H189.588V23.887H177.827V28.387H188.616V34.1143H177.827V38.6143H189.537V44.3416H170.719Z" fill="white"/>
<line x1="1" y1="13.3416" x2="78" y2="13.3416" stroke="white" stroke-width="2"/>
<line x1="88" y1="49.3416" x2="190" y2="49.3416" stroke="white" stroke-width="2"/>
</svg>
