<svg width="20" height="21" viewBox="0 0 20 21" fill="none" xmlns="http://www.w3.org/2000/svg">
<path d="M18.6877 8.10938C18.6095 7.86327 18.4587 7.64654 18.2552 7.48761C18.0516 7.32868 17.8048 7.23496 17.5471 7.21875L12.9065 6.89844L11.1877 2.5625C11.0939 2.32375 10.9305 2.11867 10.7188 1.97382C10.5071 1.82896 10.2567 1.75099 10.0002 1.75C9.74368 1.75099 9.49336 1.82896 9.28164 1.97382C9.06992 2.11867 8.90656 2.32375 8.81271 2.5625L7.06271 6.92188L2.45334 7.21875C2.19592 7.23601 1.9496 7.33012 1.74625 7.4889C1.5429 7.64768 1.39188 7.86383 1.31271 8.10938C1.23141 8.35869 1.22666 8.62664 1.29907 8.87868C1.37148 9.13072 1.51773 9.35529 1.71896 9.52344L5.26584 12.5234L4.21115 16.6719C4.13818 16.9525 4.15131 17.2486 4.24884 17.5217C4.34637 17.7948 4.52378 18.0322 4.75802 18.2031C4.98539 18.3663 5.25628 18.4579 5.53602 18.4663C5.81577 18.4746 6.09164 18.3993 6.32834 18.25L9.9924 15.9297H10.008L13.9533 18.4219C14.1557 18.5534 14.3917 18.6239 14.633 18.625C14.8301 18.6235 15.0242 18.5767 15.2004 18.4884C15.3766 18.4002 15.5302 18.2727 15.6494 18.1157C15.7686 17.9588 15.8502 17.7766 15.888 17.5832C15.9258 17.3898 15.9188 17.1903 15.8674 17L14.7502 12.4609L18.2815 9.52344C18.4827 9.35529 18.6289 9.13072 18.7014 8.87868C18.7738 8.62664 18.769 8.35869 18.6877 8.10938Z" fill="#FFC761"/>
</svg>
